<?xml version="1.0" standalone="no"?>
<!DOCTYPE svg PUBLIC "-//W3C//DTD SVG 20010904//EN"
 "http://www.w3.org/TR/2001/REC-SVG-20010904/DTD/svg10.dtd">
<svg version="1.0" xmlns="http://www.w3.org/2000/svg"
 width="510.000000pt" height="510.000000pt" viewBox="0 0 510.000000 510.000000"
 preserveAspectRatio="xMidYMid meet">

<g transform="translate(0.000000,510.000000) scale(0.100000,-0.100000)"
fill="#000000" stroke="none">
<path d="M2276 5050 c-739 -71 -1376 -595 -1587 -1305 -100 -337 -96 -724 10
-1043 l28 -84 -134 -66 c-73 -37 -132 -70 -131 -74 6 -18 641 -429 648 -419 3
6 12 102 18 214 7 111 17 280 23 375 6 96 9 176 6 178 -2 2 -59 -23 -127 -56
-67 -34 -125 -58 -129 -55 -3 4 -6 111 -6 238 0 205 3 246 24 347 48 234 134
445 254 628 84 126 110 159 220 270 263 267 580 430 967 498 129 22 409 22
545 0 365 -61 687 -210 970 -450 l60 -51 -34 60 c-111 200 -335 424 -558 559
-132 79 -340 162 -490 197 -172 39 -412 55 -577 39z"/>
<path d="M2302 4350 c-18 -32 -69 -121 -112 -196 l-80 -136 111 -194 112 -194
229 2 229 3 110 191 110 192 -112 196 -112 196 -226 0 -226 0 -33 -60z"/>
<path d="M3946 4108 c-12 -120 -46 -711 -42 -715 2 -2 59 23 126 57 67 34 124
59 127 57 2 -3 9 -49 14 -103 19 -188 -12 -463 -72 -658 -26 -83 -52 -151
-146 -383 -3 -9 5 -13 23 -13 24 0 33 8 53 45 31 58 95 131 132 150 34 18 89
19 124 3 28 -13 28 -13 9 -94 -4 -19 9 -4 36 41 23 39 50 79 60 90 23 25 46
160 56 325 10 185 -22 428 -81 601 -14 40 -25 77 -25 84 0 6 59 40 130 75 72
35 130 67 130 70 0 4 -590 397 -635 423 -10 5 -15 -8 -19 -55z"/>
<path d="M1442 3755 l-114 -194 114 -196 113 -195 226 0 c224 0 226 0 236 23
6 12 56 100 111 195 l101 172 -112 193 -113 192 -224 3 -225 2 -113 -195z"/>
<path d="M3106 3928 c-7 -13 -48 -82 -90 -155 -42 -73 -85 -147 -96 -165 -11
-18 -20 -40 -20 -48 1 -8 49 -98 108 -200 l108 -185 227 0 228 0 111 193 111
192 -111 193 -111 192 -225 3 c-225 2 -225 2 -240 -20z"/>
<path d="M1536 3003 c-13 -21 -65 -109 -116 -197 l-92 -158 110 -192 111 -191
228 -3 228 -2 112 194 113 194 -113 193 -113 194 -222 3 -221 2 -25 -37z"/>
<path d="M3079 2968 c-23 -40 -73 -125 -110 -189 -37 -64 -69 -121 -71 -127
-2 -5 47 -96 107 -201 l110 -191 229 3 229 2 86 150 c48 83 97 169 110 191
l24 42 -114 196 -113 196 -222 0 -223 0 -42 -72z"/>
<path d="M2453 2713 c53 -2 141 -2 195 0 53 1 9 3 -98 3 -107 0 -151 -2 -97
-3z"/>
<path d="M2758 2713 c7 -3 16 -2 19 1 4 3 -2 6 -13 5 -11 0 -14 -3 -6 -6z"/>
<path d="M2221 2385 l-111 -196 112 -194 113 -195 226 0 227 0 112 195 111
195 -111 195 -112 195 -228 0 -227 0 -112 -195z"/>
<path d="M1146 1988 c39 -77 145 -219 228 -306 85 -89 250 -223 317 -258 l31
-15 61 58 c34 32 77 69 96 82 l33 24 -93 33 c-203 72 -427 200 -602 343 -79
64 -86 68 -71 39z"/>
</g>
</svg>
